<svg xmlns="http://www.w3.org/2000/svg" width="1600" height="1000" viewBox="0 0 1600 1000">
  <defs>
    <filter id="shadow" x="-20%" y="-20%" width="140%" height="140%">
      <feDropShadow dx="0" dy="2" stdDeviation="2" flood-color="#0f172a" flood-opacity="0.08"/>
    </filter>
    <marker id="arrow" markerWidth="9" markerHeight="9" refX="8" refY="4.5" orient="auto" markerUnits="strokeWidth">
      <path d="M0,0 L9,4.5 L0,9 z" fill="#22354a"/>
    </marker>
    <marker id="arrowBlue" markerWidth="9" markerHeight="9" refX="8" refY="4.5" orient="auto" markerUnits="strokeWidth">
      <path d="M0,0 L9,4.5 L0,9 z" fill="#1670d2"/>
    </marker>
    <style>
      text{font-family:"Microsoft YaHei","Noto Sans CJK SC","Segoe UI",Arial,sans-serif;fill:#0f172a}
      .title{font-size:29px;font-weight:700;fill:#102a56}
      .subtitle{font-size:15px;fill:#405a7a}
      .brand{font-size:18px;font-weight:700;fill:#143b6f}
      .region{font-size:15px;font-weight:650;fill:#1263b5}
      .lane{font-size:14.5px;font-weight:700;fill:#145da8}
      .scope{font-size:18px;font-weight:700;fill:#6d28d9}
      .node-title{font-size:12.5px;font-weight:700}
      .node-sub{font-size:10.5px;fill:#526377}
      .tiny{font-size:9.5px;fill:#526377}
      .edge{font-size:10px;fill:#334155}
      .edge-blue{font-size:10px;fill:#1263b5;font-weight:650}
      .edge-orange{font-size:10px;fill:#c75a00;font-weight:650}
      .note{font-size:12px;fill:#334155}
      .legend{font-size:12px;fill:#334155}
      .flow{fill:none;stroke:#22354a;stroke-width:2;stroke-linecap:round;stroke-linejoin:round;marker-end:url(#arrow)}
      .dash{fill:none;stroke:#22354a;stroke-width:1.8;stroke-linecap:round;stroke-linejoin:round;stroke-dasharray:7 6;marker-end:url(#arrow)}
      .blueDash{fill:none;stroke:#1670d2;stroke-width:1.8;stroke-linecap:round;stroke-linejoin:round;stroke-dasharray:7 6;marker-end:url(#arrowBlue)}
      .func{fill:#fff;stroke:#f0a51b;stroke-width:1.5;rx:9;filter:url(#shadow)}
      .pattern{fill:#fbf8ff;stroke:#8b5cf6;stroke-width:1.5;stroke-dasharray:4 3;rx:9}
      .continue{fill:#f0fdf4;stroke:#22a35a;stroke-width:1.5;rx:9}
      .service{fill:#fff;stroke:#93bde8;stroke-width:1.4;rx:9;filter:url(#shadow)}
    </style>
  </defs>

  <rect x="1" y="1" width="1598" height="998" fill="#fff" stroke="#cbd5e1" stroke-width="2"/>
  <text x="48" y="41" class="title">08 Serverless 编排与人工审批 · Azure</text>
  <text x="1548" y="39" text-anchor="end" class="subtitle">Durable Functions + Logic Apps</text>
  <rect x="24" y="60" width="1552" height="888" rx="9" fill="#fff" stroke="#2f6fb9" stroke-width="1.5"/>

  <path d="M50 102L67 68h16l-7 15h13L72 102H50zm17 0 11-23 21 23H67z" fill="#2486d9"/>
  <text x="100" y="98" class="brand">Microsoft Azure</text>

  <rect x="46" y="122" width="1488" height="722" rx="7" fill="#fbfdff" stroke="#1670d2" stroke-width="1.5" stroke-dasharray="7 7"/>
  <g transform="translate(67,136)"><path d="M10 0C4 0 0 5 0 10c0 8 10 18 10 18s10-10 10-18C20 5 16 0 10 0Z" fill="#1d73d2"/><circle cx="10" cy="10" r="4" fill="#fff"/></g>
  <text x="101" y="154" class="region">Azure Region / Subscription</text>

  <rect x="300" y="165" width="670" height="650" rx="8" fill="#fff" stroke="#b9d3ef" stroke-width="1.2"/>
  <rect x="984" y="165" width="235" height="650" rx="8" fill="#fff" stroke="#b9d3ef" stroke-width="1.2"/>
  <rect x="1231" y="165" width="283" height="650" rx="8" fill="#fff" stroke="#b9d3ef" stroke-width="1.2"/>

  <rect x="300" y="165" width="670" height="38" rx="8" fill="#f3f8fe" stroke="#8eb8e6"/>
  <rect x="984" y="165" width="235" height="38" rx="8" fill="#f3f8fe" stroke="#8eb8e6"/>
  <rect x="1231" y="165" width="283" height="38" rx="8" fill="#f3f8fe" stroke="#8eb8e6"/>
  <g transform="translate(520,175)" fill="none" stroke="#1b69bb" stroke-width="1.8"><circle cx="10" cy="9" r="6"/><path d="M10 0v3M10 15v3M1 9h3M16 9h3M4 3l2 2M14 13l2 2M16 3l-2 2M6 13l-2 2"/></g>
  <text x="550" y="190" class="lane">Orchestration</text>
  <g transform="translate(1035,174)" fill="none" stroke="#1b69bb" stroke-width="1.8"><circle cx="10" cy="6" r="5"/><path d="M2 20c1-8 15-8 16 0"/></g>
  <text x="1065" y="190" class="lane">Human Approval</text>
  <g transform="translate(1278,173)"><ellipse cx="10" cy="5" rx="8" ry="3" fill="#dff4f0" stroke="#188b82"/><rect x="2" y="5" width="16" height="12" fill="#effaf8" stroke="#188b82"/><ellipse cx="10" cy="17" rx="8" ry="3" fill="#dff4f0" stroke="#188b82"/></g>
  <text x="1306" y="190" class="lane">Data &amp; External Services</text>

  <!-- left source nodes -->
  <g transform="translate(70,250)"><ellipse cx="16" cy="7" rx="14" ry="5" fill="#32c7b5"/><rect x="2" y="7" width="28" height="22" fill="#e7f8f5" stroke="#2aa89b"/><ellipse cx="16" cy="29" rx="14" ry="5" fill="#a9e9df" stroke="#2aa89b"/><line x1="2" y1="18" x2="30" y2="18" stroke="#2aa89b"/></g>
  <text x="118" y="263" class="node-title">Input Blob Storage</text><text x="118" y="284" class="node-sub">document uploaded</text>
  <g transform="translate(70,345)" fill="none" stroke="#2e8bd3" stroke-width="3" stroke-linecap="round"><path d="M3 8H25M19 3l6 5-6 5"/><path d="M29 22H7M13 17l-6 5 6 5"/></g>
  <text x="118" y="358" class="node-title">Azure Event Grid</text><text x="118" y="379" class="node-sub">blob created / event routing</text>
  <g transform="translate(70,488)" stroke="#1686d9" stroke-width="2" fill="none"><circle cx="16" cy="9" r="7"/><path d="M4 30c1-10 23-10 24 0"/></g>
  <text x="118" y="500" class="node-title">Client / Caller</text><text x="118" y="522" class="node-sub">HTTP client</text>
  <g transform="translate(70,578)" fill="#e8f5fd" stroke="#16a3dd" stroke-width="2"><path d="M6 27C-1 26-2 16 5 14 7 4 21 3 25 12c9-1 12 13 4 15Z"/><circle cx="16" cy="21" r="4" fill="#fff"/></g>
  <text x="118" y="590" class="node-title">API Management</text><text x="118" y="612" class="node-sub">HTTP request</text>

  <!-- durable scope -->
  <rect x="315" y="218" width="642" height="590" rx="10" fill="#fff" stroke="#7c3aed" stroke-width="1.7"/>
  <path d="M338 236 l14 -18 h10 l-7 13 h10 l-18 25 4-16 h-13z" fill="#7c3aed"/>
  <text x="371" y="246" class="scope">Durable Functions · Orchestration Scope</text>

  <!-- top functions: one trigger per Function -->
  <rect x="335" y="268" width="150" height="58" class="func"/>
  <g transform="translate(347,280)"><path d="M0 18L11 0h11l-6 12h10L10 34l4-14H0z" fill="#ffb000"/><path d="M19 5l8 8-8 8" fill="none" stroke="#2e91d5" stroke-width="2.5"/></g>
  <text x="389" y="291" class="node-title">Event Grid Starter</text><text x="389" y="312" class="node-sub">Event Grid Trigger</text>

  <rect x="335" y="338" width="150" height="58" class="func"/>
  <g transform="translate(347,350)"><path d="M0 18L11 0h11l-6 12h10L10 34l4-14H0z" fill="#ffb000"/><path d="M19 5l8 8-8 8" fill="none" stroke="#2e91d5" stroke-width="2.5"/></g>
  <text x="389" y="361" class="node-title">HTTP Starter</text><text x="389" y="382" class="node-sub">HTTP Trigger</text>

  <rect x="515" y="292" width="165" height="76" class="func"/>
  <g transform="translate(528,310)"><path d="M0 18L11 0h11l-6 12h10L10 34l4-14H0z" fill="#ffb000"/><path d="M19 5l8 8-8 8" fill="none" stroke="#2e91d5" stroke-width="2.5"/></g>
  <text x="570" y="315" class="node-title">Durable Orchestrator</text><text x="570" y="336" class="node-sub">activity retry · try/catch</text><text x="570" y="352" class="node-sub">explicit compensation</text>

  <rect x="700" y="292" width="120" height="76" class="pattern"/>
  <g transform="translate(711,310)" fill="none" stroke="#7c3aed" stroke-width="1.8"><rect x="0" y="0" width="28" height="30" rx="4"/><circle cx="7" cy="7" r="2" fill="#7c3aed"/><circle cx="21" cy="7" r="2" fill="#7c3aed"/><circle cx="14" cy="23" r="2" fill="#7c3aed"/><path d="M7 9v6h7m7-6v6h-7m0 0v6"/></g>
  <text x="747" y="315" class="node-title">Fan-out / Fan-in</text><text x="747" y="338" class="node-sub">parallel activities</text>

  <rect x="835" y="292" width="110" height="76" class="func"/>
  <g transform="translate(846,310)"><path d="M0 18L11 0h11l-6 12h10L10 34l4-14H0z" fill="#ffb000"/><path d="M19 5l8 8-8 8" fill="none" stroke="#2e91d5" stroke-width="2.5"/></g>
  <text x="886" y="315" class="node-title">Activity Functions</text><text x="886" y="336" class="node-sub">validate / transform</text><text x="886" y="352" class="node-sub">invoke model</text>

  <!-- both starters start the same orchestration -->
  <path d="M485 297 H500 V318 H515" class="flow"/>
  <path d="M485 367 H500 V342 H515" class="flow"/>
  <text x="515" y="280" class="tiny">deterministic instanceId · idempotent start</text>
  <path d="M680 330 H700" class="flow"/>
  <path d="M820 330 H835" class="flow"/>

  <!-- entry chains -->
  <path d="M216 270 H245 V358 H256" class="flow"/>
  <text x="224" y="247" class="edge">blob created</text>
  <path d="M216 358 H300 V297 H335" class="flow"/>
  <text x="250" y="346" class="edge">event</text>

  <path d="M216 495 H245 V589 H256" class="flow"/>
  <text x="228" y="548" class="edge">HTTP</text>
  <path d="M216 589 H300 V367 H335" class="flow"/>
  <text x="250" y="579" class="edge">HTTP</text>

  <!-- approval activity: complete before wait/timer race begins -->
  <rect x="770" y="410" width="180" height="80" class="func"/>
  <g transform="translate(783,432)"><path d="M0 18L11 0h11l-6 12h10L10 34l4-14H0z" fill="#ffb000"/><path d="M19 5l8 8-8 8" fill="none" stroke="#2e91d5" stroke-width="2.5"/></g>
  <text x="827" y="436" class="node-title">Approval Activity</text><text x="827" y="457" class="node-sub">create / send approval</text><text x="827" y="473" class="node-sub">request</text>
  <path d="M597 368 V388 H750 V450 H770" class="flow"/>

  <!-- wait + timer start only after Approval Activity completes -->
  <rect x="390" y="535" width="184" height="64" class="pattern"/>
  <g transform="translate(403,550)" fill="none" stroke="#7c3aed" stroke-width="2"><circle cx="13" cy="14" r="12"/><path d="M13 5v10l7 4"/><path d="M24 22l5 1-1 5"/></g>
  <text x="440" y="560" class="node-title">Wait for External Event</text><text x="440" y="581" class="node-sub">“ApprovalReceived”</text>

  <rect x="615" y="535" width="158" height="64" class="pattern"/>
  <g transform="translate(628,550)" fill="none" stroke="#7c3aed" stroke-width="2"><circle cx="13" cy="14" r="12"/><path d="M13 5v10l7 4"/></g>
  <text x="665" y="560" class="node-title">Durable Timer</text><text x="665" y="581" class="node-sub">approval timeout</text>

  <path d="M860 490 V505 H482 V535" class="flow"/>
  <path d="M860 505 H694 V535" class="flow"/>
  <text x="780" y="500" class="edge">activity completed</text>

  <rect x="515" y="630" width="160" height="58" class="pattern"/>
  <text x="595" y="652" text-anchor="middle" class="node-title">WhenAny</text>
  <text x="595" y="674" text-anchor="middle" class="node-sub">(Approval, Timeout)</text>
  <path d="M482 599 V615 H558 V630" class="flow"/>
  <path d="M694 599 V615 H632 V630" class="flow"/>

  <rect x="378" y="714" width="186" height="56" class="continue"/>
  <circle cx="401" cy="742" r="11" fill="#fff" stroke="#22a35a" stroke-width="1.7"/>
  <path d="M395 742l4 4 8-9" fill="none" stroke="#22a35a" stroke-width="2"/>
  <text x="423" y="738" class="node-title">Continue Workflow</text><text x="423" y="757" class="node-sub">cancel timer · same instance</text>
  <path d="M558 688 V702 H471 V714" class="flow"/>
  <text x="492" y="700" class="edge">approved</text>

  <rect x="640" y="708" width="220" height="64" class="func"/>
  <g transform="translate(653,725)"><path d="M0 18L11 0h11l-6 12h10L10 34l4-14H0z" fill="#ffb000"/><path d="M19 5l8 8-8 8" fill="none" stroke="#2e91d5" stroke-width="2.5"/></g>
  <text x="696" y="731" class="node-title">Publish Manual Intervention</text><text x="696" y="747" class="node-title">Activity</text><text x="696" y="764" class="tiny">publish escalation message</text>
  <path d="M632 688 V696 H750 V708" class="flow"/>
  <text x="700" y="700" class="edge">timeout</text>

  <!-- human approval -->
  <g transform="translate(996,255)" fill="#effaf8" stroke="#0f9f8f" stroke-width="1.8"><rect x="0" y="0" width="34" height="34" rx="6"/><circle cx="17" cy="8" r="4" fill="#fff"/><path d="M17 12v8M8 20h18M10 20v8M24 20v8" fill="none"/></g>
  <text x="1041" y="266" class="node-title">Logic Apps / Review UI</text><text x="1041" y="287" class="node-sub">human approval</text>
  <path d="M940 450 H972 V272 H996" class="flow"/>
  <text x="972" y="258" class="edge">approval request</text>

  <rect x="991" y="335" width="194" height="88" class="func"/>
  <g transform="translate(1005,353)"><path d="M0 18L11 0h11l-6 12h10L10 34l4-14H0z" fill="#ffb000"/><path d="M19 5l8 8-8 8" fill="none" stroke="#2e91d5" stroke-width="2.5"/></g>
  <text x="1047" y="354" class="node-title">Callback Function</text><text x="1047" y="374" class="node-sub">HTTP Trigger · authenticated</text><text x="1047" y="392" class="tiny">dedup gate → RaiseEventAsync</text><text x="1047" y="407" class="tiny">(instanceId, “ApprovalReceived”)</text>
  <path d="M1013 289 V335" class="flow"/>

  <!-- external services -->
  <g transform="translate(1246,244)"><ellipse cx="16" cy="7" rx="14" ry="5" fill="#32c7b5"/><rect x="2" y="7" width="28" height="22" fill="#e7f8f5" stroke="#2aa89b"/><ellipse cx="16" cy="29" rx="14" ry="5" fill="#a9e9df" stroke="#2aa89b"/><line x1="2" y1="18" x2="30" y2="18" stroke="#2aa89b"/></g>
  <text x="1290" y="255" class="node-title">Payload Blob Storage</text><text x="1290" y="276" class="node-sub">large payload / URI only</text>

  <g transform="translate(1247,348)" fill="none" stroke="#27b9dd" stroke-width="1.8"><ellipse cx="17" cy="17" rx="16" ry="7"/><ellipse cx="17" cy="17" rx="7" ry="16" transform="rotate(45 17 17)"/><ellipse cx="17" cy="17" rx="7" ry="16" transform="rotate(-45 17 17)"/><circle cx="17" cy="17" r="3" fill="#27b9dd"/></g>
  <text x="1291" y="359" class="node-title">Azure Cosmos DB</text><text x="1291" y="380" class="node-sub">conditional write / dedup gate</text><text x="1291" y="396" class="node-sub">approval_request_id / instance_id</text>

  <g transform="translate(1248,458)" fill="#edf5ff" stroke="#2775c9" stroke-width="1.5"><rect x="0" y="0" width="34" height="30" rx="2"/><path d="M0 8h34M8 8v22M22 8v22"/></g>
  <text x="1291" y="469" class="node-title">Durable Task Scheduler</text><text x="1291" y="490" class="node-sub">managed task hub / history</text><text x="1291" y="506" class="node-sub">instance state</text>

  <g transform="translate(1252,564)"><path d="M0 30L12 0h18l-7 14h12L20 34H7l5-12z" fill="#6f4ddf"/><circle cx="27" cy="5" r="4" fill="#9a7df0"/></g>
  <text x="1291" y="579" class="node-title">Microsoft Foundry</text><text x="1291" y="600" class="node-sub">model / agent inference</text>

  <g transform="translate(1249,648)" fill="#fff" stroke="#1976d2" stroke-width="1.8"><rect x="0" y="0" width="30" height="23" rx="2"/><path d="M2 3l13 10L28 3" fill="none"/></g>
  <text x="1291" y="660" class="node-title">Service Bus</text><text x="1291" y="678" class="node-sub">manual intervention queue</text>

  <g transform="translate(1248,715)" fill="#f8fbff" stroke="#4b7fb8" stroke-width="1.6"><rect x="0" y="0" width="32" height="32" rx="5"/><circle cx="16" cy="9" r="4" fill="#fff"/><path d="M8 26c1-8 15-8 16 0" fill="none"/></g>
  <text x="1291" y="726" class="node-title">Ops Worker / Logic App</text><text x="1291" y="744" class="node-sub">consume · retry / dead-letter</text>

  <g transform="translate(1249,770)" fill="#fff" stroke="#f97316" stroke-width="1.8"><rect x="0" y="0" width="30" height="23" rx="2"/><path d="M2 3l13 10L28 3" fill="none"/></g>
  <text x="1291" y="782" class="node-title">Service Bus DLQ</text><text x="1291" y="800" class="tiny">dead-letter subqueue · failed intervention messages</text>

  <!-- callback gate: Callback Function owns both dedup check and RaiseEventAsync -->
  <path d="M1185 379 H1205 V365 H1247" class="dash"/>
  <text x="1230" y="346" text-anchor="end" class="edge">dedup write</text>

  <path d="M991 401 H965 V525 H588 V567 H574" class="blueDash"/>
  <rect x="622" y="507" width="304" height="18" rx="4" fill="#fff" opacity="0.96"/>
  <text x="630" y="520" class="edge-blue">accepted · RaiseEventAsync(instanceId, “ApprovalReceived”)</text>

  <!-- external interaction corridors -->
  <path d="M990 316 H1012 V236 H1234 V260 H1246" class="dash"/>
  <text x="1082" y="228" class="edge">Blob URI / metadata</text>

  <path d="M957 473 H1248" class="dash"/>
  <text x="1012" y="464" class="edge">Durable runtime / orchestration state</text>

  <!-- inference corridor stays below Human Approval nodes -->
  <path d="M945 347 H965 V620 H1235 V579 H1252" class="dash"/>
  <text x="1043" y="612" class="edge">model inference</text>

  <path d="M860 740 H975 V660 H1249" class="dash"/>
  <text x="1025" y="652" class="edge">external message</text>

  <!-- queue consumer makes DLQ semantics explicit -->
  <path d="M1264 683 V715" class="flow"/>
  <text x="1278" y="704" class="edge">receive</text>
  <path d="M1264 747 V770" class="flow"/>
  <text x="1278" y="762" class="edge-orange">retry exhausted / explicit</text>

  <!-- footer -->
  <rect x="48" y="866" width="360" height="58" rx="7" fill="#f8fbff" stroke="#9ac0e8"/>
  <circle cx="74" cy="895" r="12" fill="#fff" stroke="#1670d2" stroke-width="1.6"/><text x="74" y="900" text-anchor="middle" font-size="15" font-weight="700" fill="#1670d2">i</text>
  <text x="98" y="889" class="note">Activity retry / try-catch / Timeout /</text><text x="98" y="908" class="note">Explicit Compensation 属于 Durable 编排</text>

  <rect x="424" y="866" width="386" height="58" rx="7" fill="#f8fbff" stroke="#9ac0e8"/>
  <circle cx="450" cy="895" r="12" fill="#fff" stroke="#1670d2" stroke-width="1.6"/><text x="450" y="900" text-anchor="middle" font-size="15" font-weight="700" fill="#1670d2">i</text>
  <text x="474" y="889" class="note">DLQ 表示消费重试耗尽 / 显式死信，</text><text x="474" y="908" class="note">不代表整个 Durable 工作流失败</text>

  <rect x="826" y="866" width="350" height="58" rx="7" fill="#f8fbff" stroke="#9ac0e8"/>
  <circle cx="852" cy="895" r="12" fill="#fff" stroke="#1670d2" stroke-width="1.6"/><text x="852" y="900" text-anchor="middle" font-size="15" font-weight="700" fill="#1670d2">i</text>
  <text x="876" y="889" class="note">大 payload 存放于 Blob，</text><text x="876" y="908" class="note">流程中传递 URI 与 metadata</text>

  <rect x="1192" y="866" width="326" height="58" rx="7" fill="#fff" stroke="#9ac0e8"/>
  <path d="M1218 887H1270" class="flow"/><text x="1285" y="891" class="legend">主路径 / 控制流</text>
  <path d="M1218 907H1270" class="dash"/><text x="1285" y="911" class="legend">状态 / 回调 / 外部交互</text>
</svg>