<svg xmlns="http://www.w3.org/2000/svg" width="1600" height="1050" viewBox="0 0 1600 1050">
<defs>
  <marker id="arrDark" markerWidth="9" markerHeight="9" refX="8" refY="4.5" orient="auto"><path d="M0,0 L9,4.5 L0,9 z" fill="#334155"/></marker>
  <marker id="arrBlue" markerWidth="9" markerHeight="9" refX="8" refY="4.5" orient="auto"><path d="M0,0 L9,4.5 L0,9 z" fill="#2563eb"/></marker>
  <marker id="arrGreen" markerWidth="9" markerHeight="9" refX="8" refY="4.5" orient="auto"><path d="M0,0 L9,4.5 L0,9 z" fill="#16a34a"/></marker>
  <marker id="arrPurple" markerWidth="9" markerHeight="9" refX="8" refY="4.5" orient="auto"><path d="M0,0 L9,4.5 L0,9 z" fill="#7c3aed"/></marker>
  <marker id="arrGray" markerWidth="9" markerHeight="9" refX="8" refY="4.5" orient="auto"><path d="M0,0 L9,4.5 L0,9 z" fill="#64748b"/></marker>
  <marker id="arrOrange" markerWidth="9" markerHeight="9" refX="8" refY="4.5" orient="auto"><path d="M0,0 L9,4.5 L0,9 z" fill="#ea580c"/></marker>
  <style>
    text{font-family:"Microsoft YaHei","Noto Sans CJK SC","Segoe UI",Arial,sans-serif;fill:#0f172a}
    .title{font-size:25px;font-weight:700}.subTitle{font-size:13px;fill:#1d4ed8}
    .group{font-size:18px;font-weight:700}.nodeTitle{font-size:13px;font-weight:700}.nodeSub{font-size:10.5px;fill:#475569}
    .small{font-size:10px;fill:#475569}.tiny{font-size:9px;fill:#475569}.label{font-size:10px;fill:#334155}
    .id{font-size:10.5px;font-weight:600}.noteTitle{font-size:13px;font-weight:700}.note{font-size:10.5px;fill:#334155}
    .flow{stroke:#334155;stroke-width:2;fill:none;marker-end:url(#arrDark)}
    .flowThin{stroke:#334155;stroke-width:1.6;fill:none;marker-end:url(#arrDark)}
    .vnet{stroke:#2563eb;stroke-width:1.8;fill:none;stroke-dasharray:7 5;marker-end:url(#arrBlue)}
    .rbac{stroke:#16a34a;stroke-width:1.8;fill:none;stroke-dasharray:7 5;marker-end:url(#arrGreen)}
    .rbacTrunk{stroke:#16a34a;stroke-width:1.8;fill:none;stroke-dasharray:7 5}
    .plink{stroke:#7c3aed;stroke-width:2;fill:none;marker-end:url(#arrPurple)}
    .meta{stroke:#64748b;stroke-width:1.6;fill:none;stroke-dasharray:6 5;marker-end:url(#arrGray)}
    .dns{stroke:#ea580c;stroke-width:1.6;fill:none;stroke-dasharray:3 4;marker-end:url(#arrOrange)}
    .policy{stroke:#64748b;stroke-width:1.4;fill:none;stroke-dasharray:6 5;marker-end:url(#arrGray)}
  </style>
</defs>
<rect x="1" y="1" width="1598" height="1048" fill="#fff" stroke="#cbd5e1" stroke-width="2"/>
<text x="28" y="38" class="title">10 私有网络多订阅 AI 架构 · Azure</text>
<text x="1570" y="36" text-anchor="end" class="subTitle">Private ingress + DNS resolution + Foundry managed egress + cross-subscription RBAC</text>
<g><rect x="610" y="58" width="380" height="62" rx="9" fill="#fff" stroke="#2563eb" stroke-width="1.7"/>
<path d="M642 88 l20 -20 20 20 -20 20z" fill="#2563eb"/><path d="M653 77 l19 11 -19 11 -9-11z" fill="#22c1c3" opacity=".9"/>
<text x="700" y="84" class="nodeTitle">Microsoft Entra Tenant</text><text x="700" y="103" class="nodeSub">Identity &amp; token source</text></g>
<g><rect x="650" y="132" width="300" height="62" rx="9" fill="#fff" stroke="#2563eb" stroke-width="1.7"/>
<path d="M674 147 l14 6 v13 c0 9-6 15-14 19-8-4-14-10-14-19v-13z" fill="#dbeafe" stroke="#2563eb" stroke-width="1.4"/><path d="M674 151 v28 M664 160 h20" stroke="#2563eb" stroke-width="1.2"/>
<text x="708" y="158" class="nodeTitle">Management Group + Azure Policy</text><text x="708" y="178" class="nodeSub">Governance · guardrails · compliance</text></g>
<path d="M800 120 V132" class="flowThin"/>
<rect x="130" y="230" width="865" height="675" rx="8" fill="#fff" stroke="#0078d4" stroke-width="1.8"/>
<rect x="130" y="230" width="42" height="34" fill="#0078d4"/>
<path d="M142 241 h18 v13 h-18z M146 237 h10 v20" fill="none" stroke="#fff" stroke-width="1.4"/>
<text x="185" y="254" class="group">Application Subscription</text>
<rect x="1015" y="230" width="455" height="675" rx="8" fill="#fff" stroke="#7c3aed" stroke-width="1.8"/>
<rect x="1015" y="230" width="42" height="34" fill="#7c3aed"/>
<path d="M1027 241 h18 v13 h-18z M1031 237 h10 v20" fill="none" stroke="#fff" stroke-width="1.4"/>
<text x="1070" y="254" class="group">Central Data Subscription</text>
<path d="M800 194 V212 H250 V230" class="policy"/>
<path d="M800 194 V212 H1240 V230" class="policy"/>
<text x="430" y="208" class="label">Policy inheritance</text><text x="1230" y="208" class="label">Policy inheritance</text>
<g><rect x="18" y="455" width="95" height="128" rx="8" fill="#f8fafc" stroke="#64748b" stroke-width="1.5"/>
<rect x="43" y="479" width="45" height="40" rx="3" fill="#e2e8f0" stroke="#475569"/><path d="M50 512 v-26 h31 v26 M57 491 h5 M68 491 h5 M57 501 h5 M68 501 h5" stroke="#475569" stroke-width="2" fill="none"/>
<text x="65" y="535" text-anchor="middle" class="small">Corporate /</text><text x="65" y="551" text-anchor="middle" class="small">On-prem Network</text></g>
<text x="121" y="498" class="tiny">VPN / ExpressRoute</text><text x="121" y="516" class="tiny">via Hub / Gateway</text>
<circle cx="260" cy="305" r="9" fill="#168bd2"/><circle cx="260" cy="293" r="5.5" fill="#168bd2"/><rect x="269" y="303" width="9" height="9" rx="2" fill="#fff" stroke="#168bd2" stroke-width="1.1"/>
<text x="260" y="333" text-anchor="middle" class="id">App Managed</text>
<text x="260" y="348" text-anchor="middle" class="id">Identity</text>
<circle cx="670" cy="305" r="9" fill="#168bd2"/><circle cx="670" cy="293" r="5.5" fill="#168bd2"/><rect x="679" y="303" width="9" height="9" rx="2" fill="#fff" stroke="#168bd2" stroke-width="1.1"/>
<text x="670" y="333" text-anchor="middle" class="id">Foundry Managed</text>
<text x="670" y="348" text-anchor="middle" class="id">Identity</text>
<circle cx="1125" cy="305" r="9" fill="#7c3aed"/><circle cx="1125" cy="293" r="5.5" fill="#7c3aed"/><rect x="1134" y="303" width="9" height="9" rx="2" fill="#fff" stroke="#7c3aed" stroke-width="1.1"/>
<text x="1125" y="333" text-anchor="middle" class="id">Azure AI Search</text>
<text x="1125" y="348" text-anchor="middle" class="id">Managed Identity</text>
<text x="1125" y="365" text-anchor="middle" class="tiny">Indexer / data-source access</text>
<circle cx="1360" cy="305" r="9" fill="#7c3aed"/><circle cx="1360" cy="293" r="5.5" fill="#7c3aed"/><rect x="1369" y="303" width="9" height="9" rx="2" fill="#fff" stroke="#7c3aed" stroke-width="1.1"/>
<text x="1360" y="333" text-anchor="middle" class="id">Purview Managed</text>
<text x="1360" y="348" text-anchor="middle" class="id">Identity</text>
<rect x="140" y="418" width="835" height="198" rx="12" fill="#f8fbff" fill-opacity="0.48" stroke="#3b82f6" stroke-width="1.35" stroke-dasharray="6 5"/>
<text x="154" y="438" class="small" style="fill:#2563eb;font-weight:700">Application network plane · VNet + private connectivity</text>
<text x="165" y="452" class="tiny" style="fill:#64748b">APIM subnet</text>
<text x="302" y="452" class="tiny" style="fill:#64748b">Private Endpoint subnet</text>
<g><rect x="150" y="455" width="130" height="100" rx="8" fill="#fff" stroke="#0078d4" stroke-width="1.7"/>
<circle cx="174" cy="490" r="17" fill="#e0f2fe" stroke="#0ea5e9" stroke-width="1.4"/><circle cx="168" cy="492" r="4.5" fill="#0ea5e9"/><circle cx="180" cy="485" r="4.5" fill="#2563eb"/><circle cx="183" cy="498" r="4.5" fill="#7c3aed"/>
<text x="198" y="481" class="nodeTitle">Private APIM</text>
<text x="166" y="541" class="nodeSub">Private / internal ingress</text>
</g>
<g><rect x="300" y="455" width="140" height="100" rx="8" fill="#fff" stroke="#0078d4" stroke-width="1.7"/>
<path d="M314 490 h7 M327 490 h7 M324 480 v7" stroke="#2563eb" stroke-width="2"/><circle cx="324" cy="490" r="5" fill="#22c55e"/><path d="M314 506 l10 -10 10 10 -10 10z" fill="none" stroke="#0ea5e9" stroke-width="1.8"/>
<text x="348" y="481" class="nodeTitle">App Private</text>
<text x="348" y="498" class="nodeTitle">Endpoint</text>
<text x="316" y="541" class="nodeSub">Private Link</text>
</g>
<g><rect x="460" y="455" width="170" height="100" rx="8" fill="#fff" stroke="#0078d4" stroke-width="1.7"/>
<circle cx="484" cy="490" r="16" fill="#dbeafe" stroke="#2563eb"/><path d="M477 487 h9 l-5 9 h8 l-13 16 4-11 h-8z" fill="#f59e0b"/>
<text x="508" y="481" class="nodeTitle">App Service /</text>
<text x="508" y="498" class="nodeTitle">Function App</text>
<text x="476" y="523" class="nodeSub">Public access: Disabled</text>
<text x="476" y="539" class="nodeSub">VNet Integration: Enabled</text>
</g>
<g><rect x="650" y="455" width="145" height="100" rx="8" fill="#fff" stroke="#0078d4" stroke-width="1.7"/>
<path d="M664 490 h7 M677 490 h7 M674 480 v7" stroke="#2563eb" stroke-width="2"/><circle cx="674" cy="490" r="5" fill="#22c55e"/><path d="M664 506 l10 -10 10 10 -10 10z" fill="none" stroke="#0ea5e9" stroke-width="1.8"/>
<text x="698" y="481" class="nodeTitle">Foundry Private</text>
<text x="698" y="498" class="nodeTitle">Endpoint</text>
<text x="666" y="541" class="nodeSub">Private Link · DNS via linked zone</text>
</g>
<g><rect x="815" y="455" width="150" height="100" rx="8" fill="#fff" stroke="#2563eb" stroke-width="1.7"/>
<rect x="824" y="475" width="30" height="30" rx="7" fill="#6366f1"/><path d="M832 499 l7-19 h9 l-5 9 h7 l-13 14 4-10h-9z" fill="#fff"/>
<text x="863" y="481" class="nodeTitle">Microsoft</text>
<text x="863" y="498" class="nodeTitle">Foundry</text>
<text x="831" y="541" class="nodeSub">Public access: Disabled</text>
</g>
<path d="M113 519 H150" class="flow"/>
<path d="M280 505 H300" class="flow"/><path d="M440 505 H460" class="flow"/><path d="M630 505 H650" class="flow"/><path d="M795 505 H815" class="flow"/>
<text x="154" y="580" class="small" style="fill:#2563eb;font-weight:700">Private ingress: On-prem → APIM → App Private Endpoint</text>
<rect x="150" y="650" width="390" height="165" rx="10" fill="#fffaf5" stroke="#ea580c" stroke-width="1.35" stroke-dasharray="6 5"/>
<text x="166" y="673" class="nodeTitle" style="fill:#c2410c">Shared Network / DNS</text>
<text x="166" y="690" class="small">On-prem conditional forwarding + VNet-linked private DNS</text>
<g><rect x="170" y="712" width="160" height="74" rx="8" fill="#fff" stroke="#f97316" stroke-width="1.4"/>
<circle cx="193" cy="742" r="15" fill="#ffedd5" stroke="#ea580c" stroke-width="1.2"/><path d="M185 741 h16 M193 733 v16" stroke="#ea580c" stroke-width="1.7"/>
<text x="216" y="735" class="nodeTitle">Azure DNS</text><text x="216" y="752" class="nodeTitle">Private Resolver</text><text x="186" y="775" class="nodeSub">Inbound endpoint · outbound optional</text></g>
<g><rect x="350" y="712" width="170" height="74" rx="8" fill="#fff" stroke="#f97316" stroke-width="1.4"/>
<circle cx="373" cy="741" r="15" fill="#ffedd5" stroke="#ea580c" stroke-width="1.2"/><path d="M365 739 h16 M365 744 h16 M373 732 v19" stroke="#ea580c" stroke-width="1.4"/>
<text x="396" y="735" class="nodeTitle">Private DNS Zones</text><text x="366" y="759" class="nodeSub">App Service · Foundry PE</text><text x="366" y="775" class="tiny">Other customer-managed PE zones as needed</text></g>
<path d="M65 583 V742 H170" class="dns"/><text x="82" y="730" class="tiny" style="fill:#c2410c">conditional forwarder</text>
<path d="M330 749 H350" class="dns"/><text x="332" y="739" class="tiny" style="fill:#c2410c">resolve</text>
<path d="M435 712 V625 H370 V555" class="dns"/><text x="382" y="625" class="tiny" style="fill:#c2410c">VNet link / PE DNS</text>
<path d="M455 712 V632 H722 V555" class="dns"/>
<rect x="600" y="625" width="345" height="165" rx="10" fill="#f8fbff" stroke="#2563eb" stroke-width="1.5" stroke-dasharray="6 5"/>
<text x="616" y="647" class="nodeTitle" style="fill:#1d4ed8">Foundry Managed VNet</text>
<text x="616" y="665" class="small">Service-managed network boundary</text>
<text x="616" y="679" class="tiny">Managed PE name resolution handled by the service</text>
<g><rect x="625" y="690" width="130" height="80" rx="8" fill="#fff" stroke="#2563eb" stroke-width="1.7"/>
<circle cx="649" cy="725" r="18" fill="#dbeafe"/><circle cx="646" cy="722" r="8" fill="none" stroke="#2563eb" stroke-width="3"/><path d="M653 729 l9 9" stroke="#2563eb" stroke-width="3"/>
<text x="673" y="716" class="nodeTitle">Azure AI Search</text>
<text x="641" y="756" class="nodeSub">Managed PE</text>
</g>
<g><rect x="785" y="690" width="130" height="80" rx="8" fill="#fff" stroke="#2563eb" stroke-width="1.7"/>
<circle cx="805" cy="720" r="7" fill="none" stroke="#d97706" stroke-width="2.2"/><path d="M810 725 l15 15 M818 733 l5-5 M822 737 l5-5" stroke="#d97706" stroke-width="2.2" fill="none"/>
<text x="833" y="716" class="nodeTitle">Key Vault</text>
<text x="801" y="756" class="nodeSub">Managed PE</text>
</g>
<rect x="475" y="570" width="170" height="30" rx="6" fill="#eff6ff" stroke="#60a5fa" stroke-width="1.2"/>
<text x="560" y="589" text-anchor="middle" class="tiny" style="fill:#1d4ed8;font-weight:700">Integration subnet · outbound</text>
<path d="M545 555 V570" class="vnet"/>
<path d="M645 585 H722 V555" class="vnet"/><text x="655" y="602" class="tiny" style="fill:#2563eb">VNet Integration / routing</text>
<path d="M260 340 V395 H890 V455" class="rbac"/><text x="470" y="386" class="label" style="fill:#15803d">RBAC / role assignment</text>
<g><rect x="1050" y="410" width="370" height="90" rx="8" fill="#fff" stroke="#2563eb" stroke-width="1.7"/>
<circle cx="1074" cy="445" r="18" fill="#dbeafe"/><circle cx="1071" cy="442" r="8" fill="none" stroke="#2563eb" stroke-width="3"/><path d="M1078 449 l9 9" stroke="#2563eb" stroke-width="3"/>
<text x="1098" y="436" class="nodeTitle">Azure AI Search</text>
<text x="1066" y="468" class="nodeSub">Public access: Disabled</text>
<text x="1066" y="484" class="nodeSub">Security filters / ACL-RBAC enforcement</text>
</g>
<g><rect x="1050" y="540" width="370" height="95" rx="8" fill="#fff" stroke="#2563eb" stroke-width="1.7"/>
<ellipse cx="1074" cy="567" rx="15" ry="5" fill="#0f9f93"/><rect x="1059" y="567" width="30" height="26" fill="#5eead4"/><ellipse cx="1074" cy="593" rx="15" ry="5" fill="#0f9f93"/><path d="M1059 576 c7 5 23 5 30 0 M1059 585 c7 5 23 5 30 0" fill="none" stroke="#0f766e"/>
<text x="1098" y="566" class="nodeTitle">Blob / ADLS</text>
<text x="1066" y="603" class="nodeSub">Public access: Disabled</text>
<text x="1066" y="619" class="nodeSub">Region-local source data</text>
</g>
<g><rect x="1050" y="680" width="170" height="82" rx="8" fill="#fff" stroke="#7c3aed" stroke-width="1.7"/>
<circle cx="1070" cy="710" r="7" fill="none" stroke="#d97706" stroke-width="2.2"/><path d="M1075 715 l15 15 M1083 723 l5-5 M1087 727 l5-5" stroke="#d97706" stroke-width="2.2" fill="none"/>
<text x="1098" y="706" class="nodeTitle">Key Vault</text>
<text x="1066" y="748" class="nodeSub">Public access: Disabled</text>
</g>
<g><rect x="1250" y="680" width="170" height="82" rx="8" fill="#fff" stroke="#7c3aed" stroke-width="1.7"/>
<circle cx="1274" cy="715" r="17" fill="#ede9fe"/><path d="M1262 715 c7-12 17-12 24 0-7 12-17 12-24 0z" fill="none" stroke="#7c3aed" stroke-width="2"/><circle cx="1274" cy="715" r="4" fill="#7c3aed"/>
<text x="1298" y="706" class="nodeTitle">Purview</text>
<text x="1266" y="748" class="nodeSub">Public access: Disabled</text>
</g>
<path d="M1235 500 V540" class="plink"/><text x="1250" y="522" class="label" style="fill:#6d28d9">Shared Private Link</text>
<path d="M755 730 H980 V455 H1050" class="plink"/><text x="914" y="445" class="label" style="fill:#6d28d9">Managed Private Endpoint</text>
<path d="M915 730 H990 V721 H1050" class="plink"/><text x="925" y="716" class="tiny" style="fill:#6d28d9">Managed PE</text>
<path d="M690 340 V378 H1035 V721" class="rbacTrunk"/>
<path d="M1035 430 H1050" class="rbac"/>
<path d="M1035 721 H1050" class="rbac"/>
<text x="820" y="370" class="label" style="fill:#15803d">Cross-subscription RBAC</text>
<path d="M1125 372 V520 H1090 V540" class="rbac"/><text x="1138" y="514" class="tiny" style="fill:#15803d">Storage Blob Data Reader</text>
<path d="M1360 350 V515 H1395 V540" class="rbac"/><text x="1320" y="500" class="tiny" style="fill:#15803d">Storage data-plane role</text>
<g><rect x="1245" y="780" width="180" height="50" rx="8" fill="#fff" stroke="#7c3aed" stroke-width="1.7"/>
<text x="1261" y="806" class="nodeTitle">Managed VNet</text>
<text x="1261" y="816" class="nodeSub">Integration Runtime</text>
</g>
<g><rect x="1245" y="845" width="180" height="50" rx="8" fill="#fff" stroke="#7c3aed" stroke-width="1.7"/>
<path d="M1259 880 h7 M1272 880 h7 M1269 870 v7" stroke="#2563eb" stroke-width="2"/><circle cx="1269" cy="880" r="5" fill="#22c55e"/><path d="M1259 896 l10 -10 10 10 -10 10z" fill="none" stroke="#0ea5e9" stroke-width="1.8"/>
<text x="1293" y="871" class="nodeTitle">Managed Private Endpoint</text>
</g>
<path d="M1335 762 V780" class="plink"/><path d="M1335 830 V845" class="plink"/>
<path d="M1245 870 H1190 V635" class="plink"/><text x="1177" y="825" text-anchor="end" class="tiny" style="fill:#6d28d9">private scan path</text>
<path d="M1200 635 V660 H1438 V721 H1420" class="meta"/><text x="1435" y="650" class="tiny">Metadata / classification results</text>
<rect x="30" y="925" width="410" height="96" rx="8" fill="#f8fbff" stroke="#2563eb" stroke-width="1.4"/>
<path d="M55 947 l18 7 v15 c0 10-8 17-18 22-10-5-18-12-18-22v-15z" fill="#dbeafe" stroke="#2563eb" stroke-width="1.5"/><path d="M55 953 v28 M46 964 h18" stroke="#2563eb"/>
<text x="90" y="947" class="noteTitle">Private-only security posture</text><text x="90" y="965" class="note">Public access disabled: Foundry · Search · Storage · Key Vault · App Service</text><text x="90" y="985" class="note">Private ingress via APIM; App / Foundry PE DNS: Private Resolver + linked zones</text><text x="90" y="1004" class="note">PE ≠ permission → DNS + Managed Identity/RBAC still required</text>
<rect x="460" y="925" width="370" height="96" rx="8" fill="#f8fbff" stroke="#2563eb" stroke-width="1.4"/>
<circle cx="486" cy="951" r="13" fill="#2563eb"/><text x="486" y="956" text-anchor="middle" style="font-size:16px;font-weight:700;fill:#fff">i</text>
<text x="510" y="949" class="noteTitle">Model router &amp; data residency</text><text x="486" y="971" class="note">• Single-region residency → prefer Regional / Standard.</text><text x="486" y="991" class="note">• Model Router → Global Standard / Data Zone Standard.</text>
<rect x="850" y="925" width="710" height="96" rx="8" fill="#fff" stroke="#64748b" stroke-width="1.3"/>
<path d="M875 950 H925" class="flowThin"/><text x="938" y="954" class="note">Data / request flow</text>
<path d="M875 986 H925" class="plink"/><text x="938" y="990" class="note">Private Link / Managed PE</text>
<path d="M1090 950 H1140" class="vnet"/><text x="1153" y="954" class="note">VNet Integration / routing</text>
<path d="M1090 986 H1140" class="rbac"/><text x="1153" y="990" class="note">Identity / RBAC</text>
<path d="M1320 950 H1370" class="meta"/><text x="1383" y="954" class="note">Metadata / control-plane</text>
<path d="M1320 986 H1370" class="dns"/><text x="1383" y="990" class="note">DNS resolution</text>
</svg>